<svg width="34" height="34" viewBox="0 0 34 34" fill="none" xmlns="http://www.w3.org/2000/svg">
<path d="M1 9C1 4.58172 4.58172 1 9 1H25C29.4183 1 33 4.58172 33 9V25C33 29.4183 29.4183 33 25 33H9C4.58172 33 1 29.4183 1 25V9Z" fill="black" fill-opacity="0.05"/>
<path d="M25 0.5C29.6944 0.5 33.5 4.30558 33.5 9V25C33.5 29.6944 29.6944 33.5 25 33.5H9C4.30558 33.5 0.5 29.6944 0.5 25V9C0.5 4.30558 4.30558 0.5 9 0.5H25Z" stroke="black" stroke-opacity="0.15"/>
<path d="M8.70234 23.2213C8.46184 23.2213 8.25975 23.1391 8.09609 22.9746C7.93242 22.8101 7.85059 22.605 7.85059 22.3593C7.85059 22.1176 7.93242 21.916 8.09609 21.7543C8.25975 21.5928 8.46184 21.5121 8.70234 21.5121H25.2978C25.5383 21.5121 25.7414 21.5943 25.9071 21.7588C26.0728 21.9233 26.1556 22.1264 26.1556 22.3681C26.1556 22.6137 26.0728 22.8173 25.9071 22.9788C25.7414 23.1405 25.5383 23.2213 25.2978 23.2213H8.70234ZM8.70234 17.8518C8.46184 17.8518 8.25975 17.7695 8.09609 17.6048C7.93242 17.4403 7.85059 17.2372 7.85059 16.9956C7.85059 16.7541 7.93242 16.5525 8.09609 16.3908C8.25975 16.2291 8.46184 16.1483 8.70234 16.1483H25.2978C25.5383 16.1483 25.7414 16.2306 25.9071 16.3953C26.0728 16.5598 26.1556 16.7629 26.1556 17.0046C26.1556 17.2461 26.0728 17.4476 25.9071 17.6093C25.7414 17.771 25.5383 17.8518 25.2978 17.8518H8.70234ZM8.70234 12.4881C8.46184 12.4881 8.25975 12.4058 8.09609 12.2413C7.93242 12.0768 7.85059 11.8717 7.85059 11.6261C7.85059 11.3844 7.93242 11.1828 8.09609 11.0213C8.25975 10.8596 8.46184 10.7788 8.70234 10.7788H25.2978C25.5383 10.7788 25.7414 10.8611 25.9071 11.0256C26.0728 11.1901 26.1556 11.3931 26.1556 11.6348C26.1556 11.8805 26.0728 12.0841 25.9071 12.2458C25.7414 12.4073 25.5383 12.4881 25.2978 12.4881H8.70234Z" fill="black"/>
</svg>
