<svg width="23" height="23" viewBox="0 0 23 23" fill="none" xmlns="http://www.w3.org/2000/svg">
<g clip-path="url(#clip0_13214_4948)">
<path d="M2.24194 22.0852C2.24194 22.0706 4.91431 19.8022 11.2161 19.8022C17.3373 19.8022 20.1902 22.0706 20.1902 22.0852H2.24194Z" fill="#F6CC90"/>
<path d="M11.2158 19.8022C10.8249 19.8022 10.448 19.811 10.0847 19.8274C15.4473 20.0751 17.9574 22.0716 17.9574 22.0852H20.19C20.19 22.0706 17.337 19.8022 11.2158 19.8022Z" fill="#F0C17F"/>
<path d="M15.291 4.00713C14.5608 6.12512 12.5932 6.4896 12.5932 6.4896C12.5932 6.4896 11.2894 4.92858 12.0006 2.86562C12.7497 0.692607 14.7173 0.328125 14.7173 0.328125C14.7173 0.328125 16.0306 1.86165 15.291 4.00713Z" fill="#C5E866"/>
<path d="M14.7178 0.328125C14.7178 0.328125 14.1977 0.424521 13.5906 0.813342C13.9242 1.42866 14.3377 2.58296 13.8468 4.00709C13.4935 5.03168 12.8508 5.64586 12.2812 6.00697C12.4483 6.31542 12.5936 6.48952 12.5936 6.48952C12.5936 6.48952 14.5613 6.12508 15.2914 4.00705C16.031 1.86165 14.7178 0.328125 14.7178 0.328125Z" fill="#B2D94B"/>
<path d="M13.3293 13.9644C12.1297 14.1349 11.2467 13.8899 11.2467 13.8899C11.2467 13.8899 10.483 10.8253 12.8696 8.43109C15.3835 5.90918 18.3748 6.73918 18.3748 6.73918C18.3748 6.73918 19.031 9.24056 17.2922 11.565" fill="#9CC042"/>
<path d="M18.3745 6.73907C18.3745 6.73907 17.5725 6.51665 16.45 6.65218C16.7531 6.69017 16.9299 6.73907 16.9299 6.73907C16.9299 6.73907 17.5861 9.24045 15.8473 11.5649L11.8843 13.9643C11.8405 13.9705 11.7971 13.976 11.7542 13.9812C12.1281 14.0273 12.6824 14.0562 13.329 13.9643L17.2919 11.5649C19.0307 9.24045 18.3745 6.73907 18.3745 6.73907Z" fill="#85AA18"/>
<path d="M8.38636 12.3575C10.5155 14.0355 10.1522 16.4407 10.1522 16.4407C10.1522 16.4407 7.8533 17.3205 5.77952 15.686C3.59513 13.9644 3.95843 11.5592 3.95843 11.5592C3.95843 11.5592 6.22963 10.6576 8.38636 12.3575Z" fill="#C5E866"/>
<path d="M5.94454 8.89658C8.08818 11.6278 11.1562 11.1582 11.1562 11.1582C11.1562 11.1582 12.2756 8.20557 10.1876 5.54524C7.98828 2.74307 4.92022 3.2127 4.92022 3.2127C4.92022 3.2127 3.77306 6.12987 5.94454 8.89658Z" fill="#9CC042"/>
<path d="M16.7378 15.2025C14.8983 16.4743 13.0982 15.598 13.0982 15.598C13.0982 15.598 12.9703 13.5655 14.762 12.3268C16.6492 11.022 18.4493 11.8983 18.4493 11.8983C18.4493 11.8983 18.6011 13.9143 16.7378 15.2025Z" fill="#C5E866"/>
<path d="M18.4496 11.8986C18.4496 11.8986 17.5113 11.4421 16.2794 11.6791C16.7288 11.7642 17.005 11.8986 17.005 11.8986C17.005 11.8986 17.1567 13.9146 15.2934 15.2029C14.7946 15.5477 14.2989 15.7344 13.8411 15.8237C14.5357 15.9555 15.6296 15.9692 16.738 15.2029C18.6014 13.9146 18.4496 11.8986 18.4496 11.8986Z" fill="#B2D94B"/>
<path d="M20.2446 21.7146C19.5953 21.257 18.855 20.9162 18.1163 20.6319C16.7833 20.119 14.5651 19.5106 11.493 19.4757C11.5429 19.0508 11.6611 18.4405 11.9379 17.761C12.2129 17.086 12.5851 16.4772 13.0515 15.9362C13.2705 16.0263 13.8342 16.2239 14.5709 16.2239C15.2531 16.2239 16.0835 16.0543 16.9245 15.4728C18.9197 14.0934 18.7836 11.9639 18.7768 11.8739C18.768 11.7575 18.6981 11.6544 18.5931 11.6034C18.5631 11.5888 18.2792 11.4544 17.8305 11.3633C18.1964 10.7891 18.4648 10.1657 18.6302 9.50419C18.7329 9.09331 18.096 8.93414 17.9931 9.34494C17.8187 10.0426 17.5161 10.693 17.0936 11.2804C16.3826 11.2636 15.4899 11.4247 14.5753 12.057C13.8937 12.5283 13.4681 13.1018 13.2025 13.6499C12.6263 13.7232 12.1311 13.6963 11.7956 13.655C12.4627 12.7552 14.2014 10.5745 16.1589 9.43551C16.525 9.22254 16.1948 8.65489 15.8287 8.86795C13.9238 9.97628 12.2657 11.9493 11.4666 12.9968C11.4205 11.9748 11.5977 10.1722 13.1022 8.66299C14.0828 7.67933 15.2499 7.10936 16.571 6.96902C17.2625 6.89556 17.8189 6.9653 18.0959 7.0152C18.125 7.18654 18.1609 7.46321 18.167 7.81053C18.1744 8.23 18.831 8.22492 18.8236 7.79902C18.8117 7.11755 18.6973 6.67449 18.6925 6.65597C18.6628 6.5429 18.5753 6.45416 18.4626 6.42291C18.4298 6.4138 17.6426 6.20026 16.5319 6.31285C15.5097 6.41656 14.0042 6.82801 12.6372 8.19935C12.5231 8.31378 12.4164 8.4297 12.3159 8.54663C12.5002 7.97889 12.7016 7.36484 12.9073 6.74729C13.502 6.56584 14.9707 5.94408 15.6015 4.11436C16.3933 1.8175 15.0254 0.183244 14.9668 0.114778C14.8907 0.0257807 14.7728 -0.0158507 14.6576 0.0055122C14.5696 0.0218408 12.4926 0.431588 11.6903 2.75883C11.0242 4.69103 11.9734 6.20105 12.2636 6.5992C12.0721 7.17424 11.8852 7.74434 11.7125 8.27583C11.5795 7.38756 11.233 6.34538 10.4458 5.34242C9.24999 3.8187 7.80357 3.23174 6.8007 3.00761C5.71102 2.76408 4.90431 2.88284 4.87047 2.88805C4.75485 2.90574 4.65741 2.98362 4.61459 3.09245C4.60536 3.11591 4.38779 3.67686 4.31354 4.53711C4.27721 4.95907 4.93136 5.01541 4.96778 4.59358C5.00959 4.10898 5.10253 3.73075 5.16469 3.51962C5.44608 3.50294 6.0066 3.4997 6.68408 3.65449C7.97951 3.95046 9.07133 4.65478 9.92926 5.74783C10.742 6.78345 11.145 7.98485 11.1269 9.31871C11.121 9.75333 11.0689 10.1323 11.0114 10.4235C9.71261 8.00459 7.87361 6.1462 7.79298 6.0653C7.49407 5.76539 7.02908 6.22885 7.3279 6.5288C7.34729 6.54828 9.24302 8.46534 10.4989 10.8584C10.2054 10.8517 9.82477 10.8193 9.39782 10.7249C8.11233 10.4405 7.03731 9.75709 6.20271 8.69372C5.62163 7.95329 5.23688 7.13156 5.05914 6.25139C4.97536 5.8363 4.33162 5.96623 4.4155 6.38136C4.61367 7.36292 5.04119 8.27732 5.6862 9.09913C6.85393 10.587 8.28765 11.1565 9.2847 11.3723C9.78156 11.4799 10.2936 11.5309 10.802 11.5143V12.6967V12.7163V17.043C10.703 16.8293 10.596 16.6271 10.4833 16.4357C10.5278 16.0471 10.6898 13.755 8.58918 12.0994C6.31001 10.3032 3.93676 11.2142 3.83682 11.2539C3.7283 11.297 3.65077 11.3945 3.63335 11.51C3.61737 11.6159 3.26803 14.1249 5.57584 15.9438C6.64774 16.7886 7.76785 17.0091 8.64526 17.0091C9.21461 17.0091 9.68153 16.9163 9.96696 16.8409C10.4241 17.6392 10.6943 18.5205 10.7755 19.4782C9.07632 19.5069 7.49114 19.7019 6.05812 20.06C5.64723 20.1627 5.80641 20.7997 6.21733 20.6971C7.60631 20.35 9.14702 20.1613 10.802 20.1344V20.8891C10.802 21.3126 11.4587 21.3126 11.4587 20.8891V20.1325C15.331 20.171 17.8057 21.1191 19.0364 21.757H3.35961C3.6787 21.5873 4.08722 21.3949 4.59095 21.2034C4.98678 21.0528 4.75332 20.4389 4.35754 20.5896C3.53975 20.9006 2.95744 21.2162 2.61288 21.4262C1.91333 21.8524 1.91333 21.9552 1.91333 22.0853C1.91333 22.2666 2.06029 22.4136 2.24165 22.4136H20.19C20.689 22.4136 20.4926 21.8895 20.2446 21.7146ZM14.9488 12.5971C16.3341 11.6393 17.6498 11.9551 18.1229 12.1208C18.1045 12.6279 17.921 13.9856 16.5511 14.9327C15.3089 15.7916 14.1004 15.5856 13.5499 15.4174C14.1971 14.8118 14.9843 14.3088 15.9081 13.913C16.2973 13.7463 16.0388 13.1427 15.6495 13.3095C14.816 13.6665 14.129 14.0917 13.5618 14.5473C13.7326 13.938 14.1117 13.1758 14.9488 12.5971ZM12.4721 14.3533C12.6192 14.3533 12.7759 14.348 12.9402 14.3361C12.8321 14.7112 12.7904 15.0412 12.7754 15.273C12.1536 15.9329 11.737 16.6138 11.4587 17.2172V14.27C11.6889 14.3097 12.0399 14.3533 12.4721 14.3533ZM12.3111 2.97289C12.8609 1.37816 14.1063 0.849652 14.5861 0.701425C14.8711 1.12155 15.5243 2.32369 14.9807 3.90043C14.5737 5.08103 13.7569 5.66365 13.1786 5.93931C13.6049 4.67925 14.0262 3.48551 14.3318 2.73606C14.4917 2.34391 13.8836 2.09592 13.7238 2.48811C13.4049 3.27 12.9705 4.50174 12.5345 5.79113C12.236 5.2198 11.8892 4.19657 12.3111 2.97289ZM5.98234 15.4281C5.14503 14.7682 4.60453 13.9282 4.37579 12.9316C4.26364 12.443 4.2576 12.033 4.26727 11.8042C4.82691 11.6474 6.54307 11.3229 8.18272 12.6152C8.99683 13.2569 9.521 14.0836 9.74076 15.0722C9.77272 15.216 9.79544 15.3528 9.81155 15.4805C9.59289 15.2169 9.37037 14.9846 9.15613 14.7837C8.02342 13.7209 6.89906 13.2758 6.85174 13.2574C6.4571 13.1037 6.21882 13.7156 6.61347 13.8693C6.62384 13.8733 7.66576 14.2858 8.70681 15.2625C9.03942 15.5746 9.33233 15.9054 9.58623 16.254C8.8588 16.4023 7.36292 16.5161 5.98234 15.4281Z" fill="white"/>
<path d="M19.8349 20.9239C19.2176 20.4829 18.5138 20.1545 17.8114 19.8806C16.5442 19.3864 14.4353 18.8001 11.5146 18.7665C11.562 18.3571 11.6744 17.769 11.9375 17.1142C12.199 16.4638 12.5529 15.8771 12.9963 15.3558C13.2045 15.4427 13.7404 15.6331 14.4408 15.6331C15.0894 15.6331 15.8788 15.4696 16.6784 14.9094C18.5753 13.5802 18.4458 11.5282 18.4394 11.4415C18.4311 11.3293 18.3646 11.23 18.2648 11.1808C18.2363 11.1668 17.9663 11.0373 17.5398 10.9495C17.8876 10.3962 18.1428 9.79551 18.3 9.15809C18.3976 8.76217 17.7921 8.6088 17.6944 9.00463C17.5286 9.67685 17.2409 10.3036 16.8391 10.8696C16.1632 10.8534 15.3145 11.0087 14.445 11.6179C13.797 12.072 13.3923 12.6247 13.1398 13.1528C12.592 13.2235 12.1212 13.1975 11.8023 13.1578C12.4365 12.2908 14.0895 10.1894 15.9506 9.09191C16.2986 8.88669 15.9846 8.33972 15.6366 8.54502C13.8256 9.61299 12.2492 11.5141 11.4895 12.5235C11.4456 11.5387 11.6141 9.80179 13.0445 8.34752C13.9767 7.39968 15.0863 6.85047 16.3423 6.71524C16.9998 6.64445 17.5287 6.71165 17.792 6.75974C17.8198 6.92484 17.8539 7.19143 17.8597 7.5261C17.8667 7.93029 18.491 7.9254 18.4839 7.51501C18.4726 6.85836 18.3638 6.43143 18.3592 6.41359C18.331 6.30463 18.2478 6.21913 18.1407 6.18901C18.1095 6.18024 17.3611 5.97447 16.3051 6.08297C15.3333 6.1829 13.902 6.57937 12.6024 7.90077C12.4939 8.01103 12.3925 8.12273 12.2969 8.2354C12.4722 7.68834 12.6636 7.09665 12.8592 6.50158C13.4246 6.32674 14.8209 5.72762 15.4206 3.96453C16.1734 1.75132 14.8729 0.176571 14.8172 0.110598C14.7448 0.0248418 14.6327 -0.0152734 14.5232 0.00531147C14.4395 0.0210454 12.4649 0.415871 11.7021 2.65836C11.0688 4.5202 11.9713 5.97523 12.2471 6.35888C12.0651 6.91299 11.8874 7.46233 11.7232 7.97446C11.5968 7.11854 11.2674 6.11431 10.519 5.14787C9.38208 3.67964 8.00695 3.11406 7.0535 2.89808C6.01752 2.66342 5.25056 2.77786 5.21839 2.78288C5.10847 2.79993 5.01583 2.87497 4.97513 2.97983C4.96635 3.00244 4.7595 3.54296 4.68891 4.37189C4.65437 4.77848 5.27628 4.83277 5.31091 4.4263C5.35066 3.95935 5.43901 3.59489 5.49811 3.39145C5.76564 3.37538 6.29853 3.37225 6.94263 3.52141C8.17422 3.8066 9.21224 4.48527 10.0279 5.53852C10.8006 6.53643 11.1837 7.69407 11.1665 8.97937C11.1609 9.39815 11.1114 9.76336 11.0567 10.0439C9.82191 7.7131 8.07354 5.92238 7.99688 5.84443C7.7127 5.55544 7.27063 6.00202 7.55472 6.29105C7.57315 6.30982 9.37547 8.15707 10.5694 10.463C10.2905 10.4565 9.92854 10.4253 9.52263 10.3343C8.30049 10.0603 7.27845 9.40178 6.48498 8.37713C5.93253 7.66366 5.56674 6.87186 5.39777 6.02374C5.31811 5.62377 4.7061 5.74897 4.78584 6.14898C4.97425 7.09479 5.38071 7.97589 5.99392 8.76778C7.10411 10.2015 8.46717 10.7503 9.41509 10.9582C9.88746 11.0618 10.3743 11.111 10.8576 11.095V12.2343V12.2533V16.4223C10.7635 16.2165 10.6617 16.0216 10.5546 15.8372C10.5969 15.4627 10.7509 13.2541 8.75384 11.6588C6.58699 9.92796 4.3307 10.8058 4.23568 10.8441C4.13251 10.8856 4.0588 10.9796 4.04224 11.0909C4.02705 11.1929 3.69493 13.6106 5.889 15.3632C6.90808 16.1772 7.97299 16.3897 8.80716 16.3897C9.34846 16.3897 9.79237 16.3003 10.0637 16.2276C10.4983 16.9969 10.7552 17.846 10.8324 18.7688C9.21698 18.7965 7.70992 18.9845 6.34752 19.3295C5.95688 19.4285 6.10821 20.0422 6.49888 19.9434C7.81941 19.6089 9.2842 19.4271 10.8576 19.4012V20.1284C10.8576 20.5364 11.4819 20.5364 11.4819 20.1284V19.3994C15.1634 19.4365 17.5162 20.35 18.6862 20.9647H3.78199C4.08535 20.8011 4.47374 20.6158 4.95265 20.4312C5.32897 20.2862 5.10702 19.6946 4.73074 19.8398C3.95325 20.1395 3.39964 20.4436 3.07205 20.6459C2.40698 21.0566 2.40698 21.1557 2.40698 21.281C2.40698 21.4558 2.5467 21.5974 2.71913 21.5974H19.7829C20.2574 21.5974 20.0707 21.0924 19.8349 20.9239ZM14.8001 12.1383C16.1171 11.2155 17.3679 11.5197 17.8178 11.6794C17.8002 12.168 17.6258 13.4763 16.3234 14.3889C15.1424 15.2166 13.9935 15.018 13.4701 14.856C14.0854 14.2724 14.8338 13.7878 15.7121 13.4064C16.0821 13.2457 15.8364 12.6641 15.4662 12.8248C14.6738 13.1689 14.0207 13.5786 13.4814 14.0175C13.6438 13.4304 14.0042 12.696 14.8001 12.1383ZM12.4455 13.8306C12.5853 13.8306 12.7342 13.8255 12.8905 13.814C12.7877 14.1755 12.748 14.4935 12.7338 14.7168C12.1426 15.3527 11.7465 16.0088 11.4819 16.5902V13.7503C11.7008 13.7886 12.0345 13.8306 12.4455 13.8306ZM12.2923 2.86463C12.815 1.32798 13.9991 0.818711 14.4552 0.675882C14.7262 1.0807 15.3472 2.23907 14.8304 3.75839C14.4435 4.896 13.6669 5.4574 13.1171 5.72303C13.5224 4.50885 13.9229 3.35859 14.2134 2.63643C14.3655 2.25856 13.7874 2.0196 13.6354 2.39751C13.3322 3.15092 12.9192 4.3378 12.5048 5.58024C12.2209 5.02972 11.8913 4.04375 12.2923 2.86463ZM6.27547 14.8662C5.47943 14.2304 4.96555 13.421 4.7481 12.4607C4.64147 11.9899 4.63572 11.5948 4.64492 11.3743C5.17698 11.2232 6.80857 10.9106 8.36741 12.1559C9.1414 12.7741 9.63975 13.5707 9.84868 14.5234C9.87906 14.6619 9.90066 14.7937 9.91597 14.9167C9.70809 14.6627 9.49654 14.439 9.29285 14.2453C8.21596 13.2212 7.14702 12.7924 7.10203 12.7746C6.72683 12.6265 6.5003 13.2161 6.87549 13.3642C6.88536 13.3681 7.87593 13.7655 8.86568 14.7067C9.1819 15.0075 9.46037 15.3262 9.70176 15.6621C9.01018 15.805 7.58801 15.9147 6.27547 14.8662Z" fill="#1E1E1E"/>
</g>
<defs>
<clipPath id="clip0_13214_4948">
<rect width="22.4135" height="22.4135" fill="white"/>
</clipPath>
</defs>
</svg>
