<svg width="156" height="36" viewBox="0 0 156 36" fill="none" xmlns="http://www.w3.org/2000/svg">
<g clip-path="url(#clip0_13203_6558)">
<path d="M6.24194 29.0852C6.24194 29.0706 8.91431 26.8022 15.2161 26.8022C21.3373 26.8022 24.1902 29.0706 24.1902 29.0852H6.24194Z" fill="#F6CC90"/>
<path d="M15.2158 26.8023C14.8249 26.8023 14.448 26.811 14.0847 26.8274C19.4473 27.0751 21.9574 29.0716 21.9574 29.0852H24.19C24.19 29.0706 21.337 26.8023 15.2158 26.8023Z" fill="#F0C17F"/>
<path d="M19.291 11.0073C18.5608 13.1253 16.5932 13.4898 16.5932 13.4898C16.5932 13.4898 15.2894 11.9288 16.0006 9.86583C16.7497 7.69282 18.7173 7.32834 18.7173 7.32834C18.7173 7.32834 20.0306 8.86187 19.291 11.0073Z" fill="#C5E866"/>
<path d="M18.7178 7.32834C18.7178 7.32834 18.1977 7.42473 17.5906 7.81356C17.9242 8.42888 18.3377 9.58317 17.8468 11.0073C17.4935 12.0319 16.8508 12.6461 16.2812 13.0072C16.4483 13.3156 16.5936 13.4897 16.5936 13.4897C16.5936 13.4897 18.5613 13.1253 19.2914 11.0073C20.031 8.86187 18.7178 7.32834 18.7178 7.32834Z" fill="#B2D94B"/>
<path d="M17.3293 20.9645C16.1297 21.1349 15.2467 20.8899 15.2467 20.8899C15.2467 20.8899 14.483 17.8254 16.8696 15.4312C19.3835 12.9092 22.3748 13.7392 22.3748 13.7392C22.3748 13.7392 23.031 16.2406 21.2922 18.5651" fill="#9CC042"/>
<path d="M22.3745 13.7392C22.3745 13.7392 21.5725 13.5168 20.45 13.6523C20.7531 13.6903 20.9299 13.7392 20.9299 13.7392C20.9299 13.7392 21.5861 16.2406 19.8473 18.5651L15.8843 20.9645C15.8405 20.9707 15.7971 20.9762 15.7542 20.9814C16.1281 21.0275 16.6824 21.0564 17.329 20.9645L21.2919 18.5651C23.0307 16.2406 22.3745 13.7392 22.3745 13.7392Z" fill="#85AA18"/>
<path d="M12.3864 19.3573C14.5155 21.0353 14.1522 23.4406 14.1522 23.4406C14.1522 23.4406 11.8533 24.3203 9.77952 22.6859C7.59513 20.9642 7.95843 18.559 7.95843 18.559C7.95843 18.559 10.2296 17.6574 12.3864 19.3573Z" fill="#C5E866"/>
<path d="M9.94454 15.8964C12.0882 18.6276 15.1562 18.1579 15.1562 18.1579C15.1562 18.1579 16.2756 15.2054 14.1876 12.545C11.9883 9.74286 8.92022 10.2125 8.92022 10.2125C8.92022 10.2125 7.77306 13.1297 9.94454 15.8964Z" fill="#9CC042"/>
<path d="M20.7378 22.2027C18.8983 23.4745 17.0982 22.5982 17.0982 22.5982C17.0982 22.5982 16.9703 20.5657 18.762 19.3269C20.6492 18.0221 22.4493 18.8985 22.4493 18.8985C22.4493 18.8985 22.6011 20.9144 20.7378 22.2027Z" fill="#C5E866"/>
<path d="M22.4496 18.8985C22.4496 18.8985 21.5113 18.4419 20.2794 18.6789C20.7288 18.764 21.005 18.8985 21.005 18.8985C21.005 18.8985 21.1567 20.9144 19.2934 22.2027C18.7946 22.5475 18.2989 22.7342 17.8411 22.8235C18.5357 22.9553 19.6296 22.9691 20.738 22.2027C22.6014 20.9144 22.4496 18.8985 22.4496 18.8985Z" fill="#B2D94B"/>
<path d="M24.2446 28.7146C23.5953 28.2569 22.855 27.9161 22.1163 27.6318C20.7833 27.1189 18.5651 26.5105 15.493 26.4756C15.5429 26.0507 15.6611 25.4404 15.9379 24.7609C16.2129 24.0859 16.5851 23.4771 17.0515 22.9361C17.2705 23.0263 17.8342 23.2238 18.5709 23.2238C19.2531 23.2238 20.0835 23.0542 20.9245 22.4727C22.9197 21.0933 22.7836 18.9638 22.7768 18.8738C22.768 18.7574 22.6981 18.6544 22.5931 18.6033C22.5631 18.5887 22.2792 18.4543 21.8305 18.3632C22.1964 17.789 22.4648 17.1656 22.6302 16.5041C22.7329 16.0932 22.096 15.934 21.9931 16.3448C21.8187 17.0425 21.5161 17.6929 21.0936 18.2803C20.3826 18.2635 19.4899 18.4246 18.5753 19.0569C17.8937 19.5282 17.4681 20.1017 17.2025 20.6498C16.6263 20.7231 16.1311 20.6962 15.7956 20.6549C16.4627 19.7552 18.2014 17.5744 20.1589 16.4354C20.525 16.2224 20.1948 15.6548 19.8287 15.8679C17.9238 16.9762 16.2657 18.9492 15.4666 19.9967C15.4205 18.9747 15.5977 17.1721 17.1022 15.6629C18.0828 14.6792 19.2499 14.1093 20.571 13.9689C21.2625 13.8955 21.8189 13.9652 22.0959 14.0151C22.125 14.1865 22.1609 14.4631 22.167 14.8104C22.1744 15.2299 22.831 15.2248 22.8236 14.7989C22.8117 14.1175 22.6973 13.6744 22.6925 13.6559C22.6628 13.5428 22.5753 13.4541 22.4626 13.4228C22.4298 13.4137 21.6426 13.2002 20.5319 13.3128C19.5097 13.4165 18.0042 13.8279 16.6372 15.1993C16.5231 15.3137 16.4164 15.4296 16.3159 15.5465C16.5002 14.9788 16.7016 14.3648 16.9073 13.7472C17.502 13.5657 18.9707 12.944 19.6015 11.1143C20.3933 8.81741 19.0254 7.18315 18.9668 7.11469C18.8907 7.02569 18.7728 6.98406 18.6576 7.00542C18.5696 7.02175 16.4926 7.4315 15.6903 9.75873C15.0242 11.6909 15.9734 13.201 16.2636 13.5991C16.0721 14.1741 15.8852 14.7442 15.7125 15.2757C15.5795 14.3875 15.233 13.3453 14.4458 12.3423C13.25 10.8186 11.8036 10.2317 10.8007 10.0075C9.71102 9.76399 8.90431 9.88275 8.87047 9.88796C8.75485 9.90565 8.65741 9.98353 8.61459 10.0924C8.60536 10.1158 8.38779 10.6768 8.31354 11.537C8.27721 11.959 8.93136 12.0153 8.96778 11.5935C9.00959 11.1089 9.10253 10.7307 9.16469 10.5195C9.44608 10.5028 10.0066 10.4996 10.6841 10.6544C11.9795 10.9504 13.0713 11.6547 13.9293 12.7477C14.742 13.7834 15.145 14.9848 15.1269 16.3186C15.121 16.7532 15.0689 17.1322 15.0114 17.4234C13.7126 15.0045 11.8736 13.1461 11.793 13.0652C11.4941 12.7653 11.0291 13.2288 11.3279 13.5287C11.3473 13.5482 13.243 15.4652 14.4989 17.8583C14.2054 17.8516 13.8248 17.8192 13.3978 17.7248C12.1123 17.4404 11.0373 16.757 10.2027 15.6936C9.62163 14.9532 9.23688 14.1315 9.05914 13.2513C8.97536 12.8362 8.33162 12.9661 8.4155 13.3813C8.61367 14.3628 9.04119 15.2772 9.6862 16.099C10.8539 17.5869 12.2876 18.1564 13.2847 18.3722C13.7816 18.4798 14.2936 18.5308 14.802 18.5142V19.6966V19.7162V24.0429C14.703 23.8292 14.596 23.627 14.4833 23.4356C14.5278 23.047 14.6898 20.7549 12.5892 19.0993C10.31 17.3031 7.93676 18.2141 7.83682 18.2538C7.7283 18.2969 7.65077 18.3944 7.63335 18.5099C7.61737 18.6158 7.26803 21.1248 9.57584 22.9437C10.6477 23.7885 11.7678 24.009 12.6453 24.009C13.2146 24.009 13.6815 23.9162 13.967 23.8408C14.4241 24.6391 14.6943 25.5204 14.7755 26.4781C13.0763 26.5068 11.4911 26.7018 10.0581 27.0599C9.64723 27.1626 9.80641 27.7996 10.2173 27.697C11.6063 27.3499 13.147 27.1612 14.802 27.1343V27.889C14.802 28.3125 15.4587 28.3125 15.4587 27.889V27.1324C19.331 27.1709 21.8057 28.119 23.0364 28.7569H7.35961C7.6787 28.5872 8.08722 28.3949 8.59095 28.2033C8.98678 28.0527 8.75332 27.4388 8.35754 27.5895C7.53975 27.9005 6.95744 28.2161 6.61288 28.4261C5.91333 28.8523 5.91333 28.9551 5.91333 29.0852C5.91333 29.2665 6.06029 29.4135 6.24165 29.4135H24.19C24.689 29.4135 24.4926 28.8894 24.2446 28.7146ZM18.9488 19.597C20.3341 18.6393 21.6498 18.955 22.1229 19.1207C22.1045 19.6278 21.921 20.9855 20.5511 21.9326C19.3089 22.7915 18.1004 22.5855 17.5499 22.4173C18.1971 21.8117 18.9843 21.3087 19.9081 20.913C20.2973 20.7462 20.0388 20.1426 19.6495 20.3094C18.816 20.6664 18.129 21.0916 17.5618 21.5472C17.7326 20.9379 18.1117 20.1758 18.9488 19.597ZM16.4721 21.3532C16.6192 21.3532 16.7759 21.3479 16.9402 21.336C16.8321 21.7111 16.7904 22.0411 16.7754 22.2729C16.1536 22.9328 15.737 23.6137 15.4587 24.2171V21.2699C15.6889 21.3096 16.0399 21.3532 16.4721 21.3532ZM16.3111 9.9728C16.8609 8.37807 18.1063 7.84956 18.5861 7.70133C18.8711 8.12146 19.5243 9.3236 18.9807 10.9003C18.5737 12.0809 17.7569 12.6636 17.1786 12.9392C17.6049 11.6792 18.0262 10.4854 18.3318 9.73597C18.4917 9.34382 17.8836 9.09583 17.7238 9.48802C17.4049 10.2699 16.9705 11.5016 16.5345 12.791C16.236 12.2197 15.8892 11.1965 16.3111 9.9728ZM9.98234 22.428C9.14503 21.7681 8.60453 20.9281 8.37579 19.9315C8.26364 19.4429 8.2576 19.0329 8.26727 18.8041C8.82691 18.6473 10.5431 18.3228 12.1827 19.6152C12.9968 20.2568 13.521 21.0835 13.7408 22.0722C13.7727 22.2159 13.7954 22.3527 13.8115 22.4804C13.5929 22.2168 13.3704 21.9846 13.1561 21.7836C12.0234 20.7208 10.8991 20.2757 10.8517 20.2573C10.4571 20.1036 10.2188 20.7155 10.6135 20.8692C10.6238 20.8732 11.6658 21.2857 12.7068 22.2624C13.0394 22.5745 13.3323 22.9053 13.5862 23.2539C12.8588 23.4022 11.3629 23.516 9.98234 22.428Z" fill="white"/>
<path d="M23.8349 27.9239C23.2176 27.4829 22.5138 27.1545 21.8114 26.8806C20.5442 26.3864 18.4353 25.8001 15.5146 25.7665C15.562 25.3571 15.6744 24.769 15.9375 24.1142C16.199 23.4638 16.5529 22.8771 16.9963 22.3558C17.2045 22.4427 17.7404 22.6331 18.4408 22.6331C19.0894 22.6331 19.8788 22.4696 20.6784 21.9094C22.5753 20.5802 22.4458 18.5282 22.4394 18.4415C22.4311 18.3293 22.3646 18.23 22.2648 18.1808C22.2363 18.1668 21.9663 18.0373 21.5398 17.9495C21.8876 17.3962 22.1428 16.7955 22.3 16.1581C22.3976 15.7622 21.7921 15.6088 21.6944 16.0046C21.5286 16.6768 21.2409 17.3036 20.8391 17.8696C20.1632 17.8534 19.3145 18.0087 18.445 18.6179C17.797 19.072 17.3923 19.6247 17.1398 20.1528C16.592 20.2235 16.1212 20.1975 15.8023 20.1578C16.4365 19.2908 18.0895 17.1894 19.9506 16.0919C20.2986 15.8867 19.9846 15.3397 19.6366 15.545C17.8256 16.613 16.2492 18.5141 15.4895 19.5235C15.4456 18.5387 15.6141 16.8018 17.0445 15.3475C17.9767 14.3997 19.0863 13.8505 20.3423 13.7152C20.9998 13.6445 21.5287 13.7117 21.792 13.7597C21.8198 13.9248 21.8539 14.1914 21.8597 14.5261C21.8667 14.9303 22.491 14.9254 22.4839 14.515C22.4726 13.8584 22.3638 13.4314 22.3592 13.4136C22.331 13.3046 22.2478 13.2191 22.1407 13.189C22.1095 13.1802 21.3611 12.9745 20.3051 13.083C19.3333 13.1829 17.902 13.5794 16.6024 14.9008C16.4939 15.011 16.3925 15.1227 16.2969 15.2354C16.4722 14.6883 16.6636 14.0966 16.8592 13.5016C17.4246 13.3267 18.8209 12.7276 19.4206 10.9645C20.1734 8.75132 18.8729 7.17657 18.8172 7.1106C18.7448 7.02484 18.6327 6.98473 18.5232 7.00531C18.4395 7.02105 16.4649 7.41587 15.7021 9.65836C15.0688 11.5202 15.9713 12.9752 16.2471 13.3589C16.0651 13.913 15.8874 14.4623 15.7232 14.9745C15.5968 14.1185 15.2674 13.1143 14.519 12.1479C13.3821 10.6796 12.007 10.1141 11.0535 9.89808C10.0175 9.66342 9.25056 9.77786 9.21839 9.78288C9.10847 9.79993 9.01583 9.87497 8.97513 9.97983C8.96635 10.0024 8.7595 10.543 8.68891 11.3719C8.65437 11.7785 9.27628 11.8328 9.31091 11.4263C9.35066 10.9593 9.43901 10.5949 9.49811 10.3914C9.76564 10.3754 10.2985 10.3723 10.9426 10.5214C12.1742 10.8066 13.2122 11.4853 14.0279 12.5385C14.8006 13.5364 15.1837 14.6941 15.1665 15.9794C15.1609 16.3982 15.1114 16.7634 15.0567 17.0439C13.8219 14.7131 12.0735 12.9224 11.9969 12.8444C11.7127 12.5554 11.2706 13.002 11.5547 13.2911C11.5732 13.3098 13.3755 15.1571 14.5694 17.463C14.2905 17.4565 13.9285 17.4253 13.5226 17.3343C12.3005 17.0603 11.2785 16.4018 10.485 15.3771C9.93253 14.6637 9.56674 13.8719 9.39777 13.0237C9.31811 12.6238 8.7061 12.749 8.78584 13.149C8.97425 14.0948 9.38071 14.9759 9.99392 15.7678C11.1041 17.2015 12.4672 17.7503 13.4151 17.9582C13.8875 18.0618 14.3743 18.111 14.8576 18.095V19.2343V19.2533V23.4223C14.7635 23.2165 14.6617 23.0216 14.5546 22.8372C14.5969 22.4627 14.7509 20.2541 12.7538 18.6588C10.587 16.928 8.3307 17.8058 8.23568 17.8441C8.13251 17.8856 8.0588 17.9796 8.04224 18.0909C8.02705 18.1929 7.69493 20.6106 9.889 22.3632C10.9081 23.1772 11.973 23.3897 12.8072 23.3897C13.3485 23.3897 13.7924 23.3003 14.0637 23.2276C14.4983 23.9969 14.7552 24.846 14.8324 25.7688C13.217 25.7965 11.7099 25.9845 10.3475 26.3295C9.95688 26.4285 10.1082 27.0422 10.4989 26.9434C11.8194 26.6089 13.2842 26.4271 14.8576 26.4012V27.1284C14.8576 27.5364 15.4819 27.5364 15.4819 27.1284V26.3994C19.1634 26.4365 21.5162 27.35 22.6862 27.9647H7.78199C8.08535 27.8011 8.47374 27.6158 8.95265 27.4312C9.32897 27.2862 9.10702 26.6946 8.73074 26.8398C7.95325 27.1395 7.39964 27.4436 7.07205 27.6459C6.40698 28.0566 6.40698 28.1557 6.40698 28.281C6.40698 28.4558 6.5467 28.5974 6.71913 28.5974H23.7829C24.2574 28.5974 24.0707 28.0924 23.8349 27.9239ZM18.8001 19.1383C20.1171 18.2155 21.3679 18.5197 21.8178 18.6794C21.8002 19.168 21.6258 20.4763 20.3234 21.3889C19.1424 22.2166 17.9935 22.018 17.4701 21.856C18.0854 21.2724 18.8338 20.7878 19.7121 20.4064C20.0821 20.2457 19.8364 19.6641 19.4662 19.8248C18.6738 20.1689 18.0207 20.5786 17.4814 21.0175C17.6438 20.4304 18.0042 19.696 18.8001 19.1383ZM16.4455 20.8306C16.5853 20.8306 16.7342 20.8255 16.8905 20.814C16.7877 21.1755 16.748 21.4935 16.7338 21.7168C16.1426 22.3527 15.7465 23.0088 15.4819 23.5902V20.7503C15.7008 20.7886 16.0345 20.8306 16.4455 20.8306ZM16.2923 9.86463C16.815 8.32798 17.9991 7.81871 18.4552 7.67588C18.7262 8.0807 19.3472 9.23907 18.8304 10.7584C18.4435 11.896 17.6669 12.4574 17.1171 12.723C17.5224 11.5089 17.9229 10.3586 18.2134 9.63643C18.3655 9.25856 17.7874 9.0196 17.6354 9.39751C17.3322 10.1509 16.9192 11.3378 16.5048 12.5802C16.2209 12.0297 15.8913 11.0438 16.2923 9.86463ZM10.2755 21.8662C9.47943 21.2304 8.96555 20.421 8.7481 19.4607C8.64147 18.9899 8.63572 18.5948 8.64492 18.3743C9.17698 18.2232 10.8086 17.9106 12.3674 19.1559C13.1414 19.7741 13.6397 20.5707 13.8487 21.5234C13.8791 21.6619 13.9007 21.7937 13.916 21.9167C13.7081 21.6627 13.4965 21.439 13.2929 21.2453C12.216 20.2212 11.147 19.7924 11.102 19.7746C10.7268 19.6265 10.5003 20.2161 10.8755 20.3642C10.8854 20.3681 11.8759 20.7655 12.8657 21.7067C13.1819 22.0075 13.4604 22.3262 13.7018 22.6621C13.0102 22.805 11.588 22.9147 10.2755 21.8662Z" fill="#1E1E1E"/>
</g>
<path d="M31.4652 24.2068V11.3948H41.0831V24.2068H39.4861V12.8124H33.0801V24.2068H31.4652ZM52.5573 19.3798C52.5573 20.1813 52.4496 20.8931 52.2343 21.5152C52.0309 22.1253 51.7319 22.6456 51.3371 23.0763C50.9543 23.5069 50.4818 23.8359 49.9195 24.0632C49.3693 24.2785 48.7532 24.3862 48.0713 24.3862C47.4373 24.3862 46.8511 24.2785 46.3128 24.0632C45.7745 23.8359 45.3079 23.5069 44.9132 23.0763C44.5184 22.6456 44.2074 22.1253 43.9801 21.5152C43.7648 20.8931 43.6571 20.1813 43.6571 19.3798C43.6571 18.3152 43.8365 17.418 44.1954 16.6882C44.5543 15.9466 45.0687 15.3843 45.7386 15.0015C46.4085 14.6067 47.204 14.4094 48.1251 14.4094C48.9984 14.4094 49.764 14.6067 50.422 15.0015C51.0919 15.3843 51.6122 15.9466 51.9831 16.6882C52.3659 17.418 52.5573 18.3152 52.5573 19.3798ZM45.29 19.3798C45.29 20.1335 45.3857 20.7914 45.5771 21.3537C45.7805 21.904 46.0915 22.3286 46.5102 22.6277C46.9289 22.9268 47.4612 23.0763 48.1072 23.0763C48.7532 23.0763 49.2855 22.9268 49.7042 22.6277C50.1229 22.3286 50.4279 21.904 50.6193 21.3537C50.8227 20.7914 50.9244 20.1335 50.9244 19.3798C50.9244 18.6142 50.8227 17.9623 50.6193 17.4239C50.416 16.8856 50.105 16.4729 49.6863 16.1858C49.2795 15.8867 48.7472 15.7372 48.0893 15.7372C47.1083 15.7372 46.3965 16.0602 45.9539 16.7062C45.5113 17.3522 45.29 18.2434 45.29 19.3798ZM62.0222 14.5888V22.8789H63.4218V27.5443H61.8966V24.2068H55.2035V27.5443H53.6962V22.8789H54.4678C55.018 22.1133 55.4726 21.2819 55.8315 20.3847C56.2023 19.4755 56.4775 18.5305 56.6569 17.5496C56.8483 16.5567 56.95 15.5697 56.962 14.5888H62.0222ZM58.3616 15.8269C58.3137 16.6404 58.1881 17.4838 57.9848 18.357C57.7814 19.2183 57.5182 20.0438 57.1952 20.8333C56.8842 21.6228 56.5194 22.3047 56.1007 22.8789H60.4969V15.8269H58.3616ZM73.4893 19.3798C73.4893 20.1813 73.3817 20.8931 73.1663 21.5152C72.963 22.1253 72.6639 22.6456 72.2691 23.0763C71.8863 23.5069 71.4138 23.8359 70.8516 24.0632C70.3013 24.2785 69.6852 24.3862 69.0033 24.3862C68.3693 24.3862 67.7831 24.2785 67.2448 24.0632C66.7065 23.8359 66.24 23.5069 65.8452 23.0763C65.4504 22.6456 65.1394 22.1253 64.9121 21.5152C64.6968 20.8931 64.5891 20.1813 64.5891 19.3798C64.5891 18.3152 64.7686 17.418 65.1274 16.6882C65.4863 15.9466 66.0007 15.3843 66.6706 15.0015C67.3405 14.6067 68.136 14.4094 69.0572 14.4094C69.9304 14.4094 70.696 14.6067 71.354 15.0015C72.0239 15.3843 72.5443 15.9466 72.9151 16.6882C73.2979 17.418 73.4893 18.3152 73.4893 19.3798ZM66.222 19.3798C66.222 20.1335 66.3177 20.7914 66.5091 21.3537C66.7125 21.904 67.0235 22.3286 67.4422 22.6277C67.8609 22.9268 68.3932 23.0763 69.0392 23.0763C69.6852 23.0763 70.2175 22.9268 70.6362 22.6277C71.0549 22.3286 71.36 21.904 71.5514 21.3537C71.7547 20.7914 71.8564 20.1335 71.8564 19.3798C71.8564 18.6142 71.7547 17.9623 71.5514 17.4239C71.348 16.8856 71.037 16.4729 70.6183 16.1858C70.2116 15.8867 69.6792 15.7372 69.0213 15.7372C68.0403 15.7372 67.3286 16.0602 66.8859 16.7062C66.4433 17.3522 66.222 18.2434 66.222 19.3798ZM80.3882 14.4094C81.5725 14.4094 82.5235 14.8221 83.2413 15.6475C83.971 16.4729 84.3359 17.717 84.3359 19.3798C84.3359 20.4684 84.1684 21.3896 83.8334 22.1432C83.5105 22.8849 83.0499 23.4471 82.4518 23.8299C81.8656 24.2008 81.1718 24.3862 80.3703 24.3862C79.8798 24.3862 79.4432 24.3204 79.0604 24.1888C78.6776 24.0572 78.3486 23.8897 78.0734 23.6864C77.8103 23.4711 77.583 23.2378 77.3916 22.9866H77.2839C77.3078 23.1899 77.3318 23.4471 77.3557 23.7582C77.3796 24.0692 77.3916 24.3383 77.3916 24.5656V28.5133H75.8125V14.5888H77.1045L77.3198 15.8987H77.3916C77.583 15.6236 77.8103 15.3724 78.0734 15.1451C78.3486 14.9178 78.6716 14.7383 79.0424 14.6067C79.4252 14.4752 79.8738 14.4094 80.3882 14.4094ZM80.1011 15.7372C79.4551 15.7372 78.9347 15.8628 78.54 16.114C78.1452 16.3533 77.8581 16.7182 77.6787 17.2086C77.4992 17.6991 77.4035 18.3211 77.3916 19.0748V19.3798C77.3916 20.1694 77.4753 20.8393 77.6428 21.3896C77.8103 21.9398 78.0914 22.3585 78.4861 22.6456C78.8929 22.9327 79.4432 23.0763 80.137 23.0763C80.7232 23.0763 81.2017 22.9148 81.5725 22.5918C81.9553 22.2688 82.2364 21.8322 82.4159 21.2819C82.6073 20.7197 82.703 20.0796 82.703 19.3619C82.703 18.2613 82.4876 17.3821 82.057 16.7241C81.6383 16.0662 80.9863 15.7372 80.1011 15.7372ZM95.0347 19.3798C95.0347 20.1813 94.927 20.8931 94.7117 21.5152C94.5083 22.1253 94.2092 22.6456 93.8145 23.0763C93.4317 23.5069 92.9591 23.8359 92.3969 24.0632C91.8466 24.2785 91.2305 24.3862 90.5487 24.3862C89.9147 24.3862 89.3285 24.2785 88.7902 24.0632C88.2519 23.8359 87.7853 23.5069 87.3905 23.0763C86.9958 22.6456 86.6848 22.1253 86.4575 21.5152C86.2421 20.8931 86.1345 20.1813 86.1345 19.3798C86.1345 18.3152 86.3139 17.418 86.6728 16.6882C87.0317 15.9466 87.5461 15.3843 88.216 15.0015C88.8859 14.6067 89.6814 14.4094 90.6025 14.4094C91.4758 14.4094 92.2414 14.6067 92.8993 15.0015C93.5692 15.3843 94.0896 15.9466 94.4605 16.6882C94.8433 17.418 95.0347 18.3152 95.0347 19.3798ZM87.7674 19.3798C87.7674 20.1335 87.8631 20.7914 88.0545 21.3537C88.2578 21.904 88.5689 22.3286 88.9876 22.6277C89.4062 22.9268 89.9386 23.0763 90.5846 23.0763C91.2305 23.0763 91.7629 22.9268 92.1816 22.6277C92.6003 22.3286 92.9053 21.904 93.0967 21.3537C93.3001 20.7914 93.4018 20.1335 93.4018 19.3798C93.4018 18.6142 93.3001 17.9623 93.0967 17.4239C92.8934 16.8856 92.5823 16.4729 92.1636 16.1858C91.7569 15.8867 91.2246 15.7372 90.5666 15.7372C89.5857 15.7372 88.8739 16.0602 88.4313 16.7062C87.9887 17.3522 87.7674 18.2434 87.7674 19.3798ZM108.545 14.5888L104.58 19.2542L108.886 24.2068H107.092L102.929 19.326V24.2068H101.457V19.326L97.2945 24.2068H95.5001L99.8066 19.2542L95.841 14.5888H97.5636L101.457 19.2542V14.5888H102.929V19.2542L106.841 14.5888H108.545ZM111.865 14.5888V18.5903H117.087V14.5888H118.666V24.2068H117.087V19.9182H111.865V24.2068H110.286V14.5888H111.865ZM123.021 20.4565C123.021 20.5641 123.015 20.7197 123.003 20.923C123.003 21.1144 122.997 21.3238 122.985 21.5511C122.973 21.7664 122.961 21.9757 122.949 22.1791C122.937 22.3705 122.925 22.526 122.913 22.6456L128.063 14.5888H130.001V24.2068H128.53V18.5365C128.53 18.3451 128.53 18.0939 128.53 17.7828C128.542 17.4718 128.554 17.1668 128.566 16.8677C128.578 16.5567 128.59 16.3234 128.602 16.1679L123.488 24.2068H121.532V14.5888H123.021V20.4565ZM138.571 14.5888H140.293L136.184 19.2183L140.634 24.2068H138.804L134.462 19.326V24.2068H132.883V14.5888H134.462V19.2542L138.571 14.5888ZM143.69 20.4565C143.69 20.5641 143.684 20.7197 143.672 20.923C143.672 21.1144 143.666 21.3238 143.654 21.5511C143.642 21.7664 143.63 21.9757 143.618 22.1791C143.606 22.3705 143.595 22.526 143.583 22.6456L148.732 14.5888H150.67V24.2068H149.199V18.5365C149.199 18.3451 149.199 18.0939 149.199 17.7828C149.211 17.4718 149.223 17.1668 149.235 16.8677C149.247 16.5567 149.259 16.3234 149.271 16.1679L144.157 24.2068H142.201V14.5888H143.69V20.4565Z" fill="white"/>
<defs>
<clipPath id="clip0_13203_6558">
<rect width="22.4135" height="22.4135" fill="white" transform="translate(4 7)"/>
</clipPath>
</defs>
</svg>
